<svg width="12" height="12" viewBox="0 0 12 12" fill="none" xmlns="http://www.w3.org/2000/svg">
<path fill-rule="evenodd" clip-rule="evenodd" d="M3.48481 10.7648C3.44988 10.73 3.42218 10.6886 3.40327 10.6431C3.38437 10.5975 3.37464 10.5487 3.37464 10.4993C3.37464 10.45 3.38437 10.4012 3.40327 10.3556C3.42218 10.31 3.44988 10.2687 3.48481 10.2338L7.72006 5.99933L3.48481 1.76483C3.41439 1.69441 3.37483 1.59891 3.37483 1.49933C3.37483 1.39975 3.41439 1.30424 3.48481 1.23383C3.55522 1.16341 3.65073 1.12386 3.75031 1.12386C3.84989 1.12386 3.94539 1.16341 4.01581 1.23383L8.51581 5.73383C8.55073 5.76866 8.57844 5.81005 8.59734 5.85561C8.61625 5.90116 8.62598 5.95 8.62598 5.99933C8.62598 6.04866 8.61625 6.0975 8.59734 6.14305C8.57844 6.18861 8.55073 6.23 8.51581 6.26483L4.01581 10.7648C3.98097 10.7998 3.93959 10.8275 3.89403 10.8464C3.84847 10.8653 3.79963 10.875 3.75031 10.875C3.70098 10.875 3.65214 10.8653 3.60658 10.8464C3.56102 10.8275 3.51964 10.7998 3.48481 10.7648Z" fill="#B3B3B3"/>
</svg>
